<svg width="22" height="17" viewBox="0 0 22 17" fill="none" xmlns="http://www.w3.org/2000/svg">
<path d="M21.0533 2.58003C20.9913 2.50356 20.9131 2.44177 20.8243 2.39912C20.7356 2.35647 20.6385 2.33402 20.54 2.33337H6.66L7.09333 3.6667H19.6667L17.8867 11.6667H7.88666L4.84 2.02003C4.80704 1.91767 4.74982 1.8248 4.6732 1.74935C4.59658 1.67389 4.50285 1.61809 4.4 1.5867L1.66666 0.746699C1.58262 0.720872 1.49431 0.711852 1.40678 0.720155C1.31924 0.728457 1.2342 0.753919 1.15651 0.795086C0.999608 0.878227 0.882157 1.02029 0.829997 1.19003C0.777838 1.35977 0.795244 1.54328 0.878385 1.70018C0.961526 1.85709 1.10359 1.97454 1.27333 2.0267L3.66666 2.76003L6.72666 12.4267L5.63333 13.32L5.54666 13.4067C5.27622 13.7184 5.12293 14.1146 5.1132 14.5271C5.10346 14.9396 5.23789 15.3426 5.49333 15.6667C5.67504 15.8877 5.90594 16.0631 6.16756 16.1788C6.42918 16.2946 6.71426 16.3475 7 16.3334H18.1267C18.3035 16.3334 18.473 16.2631 18.5981 16.1381C18.7231 16.0131 18.7933 15.8435 18.7933 15.6667C18.7933 15.4899 18.7231 15.3203 18.5981 15.1953C18.473 15.0703 18.3035 15 18.1267 15H6.89333C6.81656 14.9974 6.74177 14.975 6.67617 14.9351C6.61057 14.8951 6.55639 14.8389 6.51886 14.7719C6.48133 14.7048 6.46172 14.6293 6.46192 14.5525C6.46211 14.4757 6.48212 14.4002 6.52 14.3334L8.12666 13H18.42C18.5741 13.0038 18.7248 12.954 18.8463 12.8592C18.9679 12.7644 19.0528 12.6304 19.0867 12.48L21.2 3.1467C21.2203 3.04731 21.2176 2.94461 21.1922 2.84641C21.1668 2.74821 21.1193 2.6571 21.0533 2.58003Z" fill="#359740"/>
</svg>
